<svg version="1.1" id="Layer_1" xmlns="http://www.w3.org/2000/svg" xmlns:xlink="http://www.w3.org/1999/xlink" x="0px" y="0px"
	 width="100%" viewBox="0 0 512 512" enable-background="new 0 0 512 512" xml:space="preserve">
<path fill="none" stroke="none" 
	d="
M254.000000,1.000000 
	C340.315155,1.000000 426.630280,1.000000 512.972717,1.000000 
	C512.972717,171.612503 512.972717,342.225006 512.972717,512.918762 
	C342.423492,512.918762 171.846909,512.918762 1.135166,512.918762 
	C1.135166,342.333405 1.135166,171.666718 1.128425,1.000018 
	C83.104446,1.000000 165.087219,1.000000 247.432526,1.334060 
	C233.378586,10.141439 218.984787,18.653666 204.541000,27.080248 
	C171.186050,46.539719 137.806839,65.957565 104.437553,85.392464 
	C81.664436,98.655960 58.865036,111.874985 36.178307,125.284630 
	C34.673210,126.174255 33.117886,128.512131 33.112663,130.181168 
	C32.991264,169.006226 33.081093,207.831924 33.070396,247.154816 
	C33.060902,261.293732 33.112896,274.935364 33.099911,289.073853 
	C33.017731,318.724670 33.048950,347.878845 32.912586,377.032227 
	C32.898064,380.136261 33.988979,381.713715 36.627327,383.211700 
	C61.997467,397.616241 87.282219,412.171143 112.594696,426.677307 
	C158.060425,452.733002 203.550797,478.745972 248.943405,504.928406 
	C251.857422,506.609222 253.761612,506.429626 256.487579,504.809387 
	C288.038300,486.056091 319.663635,467.428345 351.614410,448.540344 
	C363.094452,441.759583 374.229279,435.205811 385.731689,428.581055 
	C413.068970,412.492676 440.005402,396.418640 467.058380,380.543304 
	C469.841003,378.910400 469.877167,376.905090 469.876495,374.368927 
	C469.855835,294.125885 469.813934,213.882767 469.976440,133.640060 
	C469.985596,129.112274 468.289886,126.994026 464.617950,124.899742 
	C444.394897,113.365494 424.343872,101.530167 404.186157,89.880592 
	C392.469238,83.109131 380.662964,76.492271 368.735535,69.513031 
	C357.295258,62.638596 346.016357,56.056957 334.521484,49.250618 
	C322.734711,42.411179 311.090271,35.920441 299.632629,29.115108 
	C295.568146,26.700985 290.348572,25.533470 288.465027,20.212555 
	C288.329102,19.828575 286.859741,19.931839 286.015533,19.779926 
	C284.638672,19.532175 283.077637,19.595760 281.921906,18.945639 
	C273.748322,14.347852 265.618073,9.668522 257.578735,4.840793 
	C256.136932,3.974989 255.180527,2.300894 254.000000,1.000000 
z"/>
<path fill="#64BC4F" opacity="1.000000" stroke="none" 
	d="
M253.571533,1.000000 
	C255.180527,2.300894 256.136932,3.974989 257.578735,4.840793 
	C265.618073,9.668522 273.748322,14.347852 281.921906,18.945639 
	C283.077637,19.595760 284.638672,19.532175 286.015533,19.779926 
	C286.859741,19.931839 288.329102,19.828575 288.465027,20.212555 
	C290.348572,25.533470 295.568146,26.700985 299.632629,29.115108 
	C311.090271,35.920441 322.734711,42.411179 334.208313,49.413643 
	C261.626465,92.692055 189.152588,135.600937 116.618439,178.407715 
	C113.684669,180.139099 113.100800,182.214996 113.108849,185.303711 
	C113.196602,218.965744 113.163651,252.628082 113.163589,286.290344 
	C113.163582,288.176880 113.163597,290.063446 113.163597,292.904938 
	C101.053032,285.857361 90.033348,279.404144 78.974403,273.018860 
	C63.709080,264.204865 48.414143,255.442184 33.131889,246.657516 
	C33.081093,207.831924 32.991264,169.006226 33.112663,130.181168 
	C33.117886,128.512131 34.673210,126.174255 36.178307,125.284630 
	C58.865036,111.874985 81.664436,98.655960 104.437553,85.392464 
	C137.806839,65.957565 171.186050,46.539719 204.541000,27.080248 
	C218.984787,18.653666 233.378586,10.141439 247.897552,1.334060 
	C249.714355,1.000000 251.428711,1.000000 253.571533,1.000000 
z"/>
<path fill="#FEFEFE" opacity="1.000000" stroke="none" 
	d="
M33.070396,247.154816 
	C48.414143,255.442184 63.709080,264.204865 78.974403,273.018860 
	C90.033348,279.404144 101.053032,285.857361 113.163597,292.904938 
	C113.163597,290.063446 113.163582,288.176880 113.163589,286.290344 
	C113.163651,252.628082 113.196602,218.965744 113.108849,185.303711 
	C113.100800,182.214996 113.684669,180.139099 116.618439,178.407715 
	C189.152588,135.600937 261.626465,92.692055 334.424255,49.638344 
	C346.016357,56.056957 357.295258,62.638596 368.402771,69.624023 
	C340.294220,86.239388 312.357056,102.450974 283.866241,118.983849 
	C286.222992,120.448448 287.613129,121.354805 289.042480,122.194366 
	C319.604462,140.145432 350.134705,158.151199 380.788239,175.944626 
	C384.111084,177.873428 385.268311,179.868790 385.262390,183.700119 
	C385.139557,263.188477 385.168335,342.677094 385.178040,422.165649 
	C385.178314,424.327789 385.299377,426.489899 385.364105,428.652039 
	C374.229279,435.205811 363.094452,441.759583 351.484131,448.149536 
	C350.837219,445.667664 350.531677,443.350555 350.514984,441.031372 
	C350.317474,413.553070 350.162445,386.074432 349.998596,358.595886 
	C349.988342,356.876373 349.997284,355.156769 349.997284,352.740143 
	C346.682098,354.686035 344.253448,356.090027 341.845245,357.528320 
	C312.562897,375.017090 283.262360,392.475677 254.038330,410.061401 
	C251.296371,411.711365 249.361237,411.890564 246.421356,410.201630 
	C195.361572,380.867554 144.223923,351.668884 93.074074,322.491852 
	C73.141449,311.121857 53.136757,299.878204 33.164894,288.576996 
	C33.112896,274.935364 33.060902,261.293732 33.070396,247.154816 
M267.414886,149.075058 
	C262.737793,146.197052 258.181641,143.085098 253.316772,140.570282 
	C251.655609,139.711563 248.745804,139.535919 247.206924,140.428345 
	C215.389938,158.879700 183.666046,177.492416 152.030121,196.252609 
	C150.431625,197.200500 148.882202,199.745590 148.847824,201.575897 
	C148.584839,215.570465 148.601120,229.573929 148.837173,243.569458 
	C148.865891,245.272537 150.304398,247.629807 151.788071,248.521042 
	C161.912201,254.602524 172.214508,260.388214 182.489456,266.216248 
	C183.375549,266.718811 184.479523,266.837280 185.836411,267.239014 
	C185.836411,252.851685 185.974487,239.022766 185.746017,225.199905 
	C185.683517,221.419006 186.746353,219.268265 190.128845,217.316666 
	C218.957886,200.683273 247.664383,183.837479 276.402832,167.047150 
	C279.609192,165.173828 282.786011,163.249908 286.588806,160.984756 
	C279.857300,156.825027 273.931793,153.163391 267.414886,149.075058 
M313.698395,310.442841 
	C313.698395,317.873291 313.698395,325.303772 313.698395,333.141968 
	C314.761658,332.798096 315.394501,332.705383 315.911285,332.409790 
	C326.597473,326.296631 337.331818,320.262268 347.874237,313.909607 
	C349.315582,313.041107 350.582520,310.566467 350.590118,308.829590 
	C350.746307,273.178131 350.753479,237.525558 350.575928,201.874283 
	C350.566833,200.045547 349.099426,197.468216 347.535339,196.523392 
	C335.722473,189.387482 323.679779,182.633255 311.800201,175.605438 
	C309.528748,174.261642 307.838531,174.106583 305.490387,175.497513 
	C295.470947,181.432632 285.315094,187.137299 275.229462,192.961380 
	C274.192230,193.560349 273.290955,194.394760 272.006134,195.360855 
	C285.007874,202.994858 297.420380,210.414993 309.987305,217.563599 
	C312.928467,219.236694 314.188812,220.968018 314.153656,224.499893 
	C313.871796,252.818024 313.820312,281.138428 313.698395,310.442841 
M255.587418,327.182281 
	C251.702591,330.788391 248.182007,330.156464 243.694107,327.486755 
	C213.968246,309.803925 184.049927,292.444550 154.181595,275.001556 
	C152.670074,274.118866 151.041672,273.436371 148.730408,272.297272 
	C148.730408,285.855255 148.650742,298.625977 148.860016,311.391968 
	C148.879822,312.600525 150.479507,314.178680 151.737946,314.913666 
	C183.614822,333.531219 215.527878,352.087158 247.521118,370.503632 
	C248.863632,371.276398 251.422485,371.271515 252.765488,370.499512 
	C264.878418,363.536652 276.799957,356.241333 288.893738,349.244202 
	C291.448486,347.766144 292.177948,346.038361 292.133453,343.244232 
	C291.982117,333.751984 292.075714,324.255798 292.075775,314.761139 
	C292.075806,312.061432 292.075775,309.361725 292.075775,305.885742 
	C279.476379,313.271576 267.872101,320.074127 255.587418,327.182281 
z"/>
<path fill="#64BC4F" opacity="1.000000" stroke="none" 
	d="
M385.731689,428.581055 
	C385.299377,426.489899 385.178314,424.327789 385.178040,422.165649 
	C385.168335,342.677094 385.139557,263.188477 385.262390,183.700119 
	C385.268311,179.868790 384.111084,177.873428 380.788239,175.944626 
	C350.134705,158.151199 319.604462,140.145432 289.042480,122.194366 
	C287.613129,121.354805 286.222992,120.448448 283.866241,118.983849 
	C312.357056,102.450974 340.294220,86.239388 368.564148,69.916817 
	C380.662964,76.492271 392.469238,83.109131 404.186157,89.880592 
	C424.343872,101.530167 444.394897,113.365494 464.617950,124.899742 
	C468.289886,126.994026 469.985596,129.112274 469.976440,133.640060 
	C469.813934,213.882767 469.855835,294.125885 469.876495,374.368927 
	C469.877167,376.905090 469.841003,378.910400 467.058380,380.543304 
	C440.005402,396.418640 413.068970,412.492676 385.731689,428.581055 
z"/>
<path fill="#64BC4F" opacity="1.000000" stroke="none" 
	d="
M33.099915,289.073853 
	C53.136757,299.878204 73.141449,311.121857 93.074074,322.491852 
	C144.223923,351.668884 195.361572,380.867554 246.421356,410.201630 
	C249.361237,411.890564 251.296371,411.711365 254.038330,410.061401 
	C283.262360,392.475677 312.562897,375.017090 341.845245,357.528320 
	C344.253448,356.090027 346.682098,354.686035 349.997284,352.740143 
	C349.997284,355.156769 349.988342,356.876373 349.998596,358.595886 
	C350.162445,386.074432 350.317474,413.553070 350.514984,441.031372 
	C350.531677,443.350555 350.837219,445.667664 351.138855,448.376526 
	C319.663635,467.428345 288.038300,486.056091 256.487579,504.809387 
	C253.761612,506.429626 251.857422,506.609222 248.943405,504.928406 
	C203.550797,478.745972 158.060425,452.733002 112.594696,426.677307 
	C87.282219,412.171143 61.997467,397.616241 36.627327,383.211700 
	C33.988979,381.713715 32.898064,380.136261 32.912586,377.032227 
	C33.048950,347.878845 33.017731,318.724670 33.099915,289.073853 
z"/>
<path fill="#676767" opacity="1.000000" stroke="none" 
	d="
M267.710571,149.288406 
	C273.931793,153.163391 279.857300,156.825027 286.588806,160.984756 
	C282.786011,163.249908 279.609192,165.173828 276.402832,167.047150 
	C247.664383,183.837479 218.957886,200.683273 190.128845,217.316666 
	C186.746353,219.268265 185.683517,221.419006 185.746017,225.199905 
	C185.974487,239.022766 185.836411,252.851685 185.836411,267.239014 
	C184.479523,266.837280 183.375549,266.718811 182.489456,266.216248 
	C172.214508,260.388214 161.912201,254.602524 151.788071,248.521042 
	C150.304398,247.629807 148.865891,245.272537 148.837173,243.569458 
	C148.601120,229.573929 148.584839,215.570465 148.847824,201.575897 
	C148.882202,199.745590 150.431625,197.200500 152.030121,196.252609 
	C183.666046,177.492416 215.389938,158.879700 247.206924,140.428345 
	C248.745804,139.535919 251.655609,139.711563 253.316772,140.570282 
	C258.181641,143.085098 262.737793,146.197052 267.710571,149.288406 
z"/>
<path fill="#686868" opacity="1.000000" stroke="none" 
	d="
M313.698364,309.950500 
	C313.820312,281.138428 313.871796,252.818024 314.153656,224.499893 
	C314.188812,220.968018 312.928467,219.236694 309.987305,217.563599 
	C297.420380,210.414993 285.007874,202.994858 272.006134,195.360855 
	C273.290955,194.394760 274.192230,193.560349 275.229462,192.961380 
	C285.315094,187.137299 295.470947,181.432632 305.490387,175.497513 
	C307.838531,174.106583 309.528748,174.261642 311.800201,175.605438 
	C323.679779,182.633255 335.722473,189.387482 347.535339,196.523392 
	C349.099426,197.468216 350.566833,200.045547 350.575928,201.874283 
	C350.753479,237.525558 350.746307,273.178131 350.590118,308.829590 
	C350.582520,310.566467 349.315582,313.041107 347.874237,313.909607 
	C337.331818,320.262268 326.597473,326.296631 315.911285,332.409790 
	C315.394501,332.705383 314.761658,332.798096 313.698395,333.141968 
	C313.698395,325.303772 313.698395,317.873291 313.698364,309.950500 
z"/>
<path fill="#676767" opacity="1.000000" stroke="none" 
	d="
M255.927612,327.029480 
	C267.872101,320.074127 279.476379,313.271576 292.075775,305.885742 
	C292.075775,309.361725 292.075806,312.061432 292.075775,314.761139 
	C292.075714,324.255798 291.982117,333.751984 292.133453,343.244232 
	C292.177948,346.038361 291.448486,347.766144 288.893738,349.244202 
	C276.799957,356.241333 264.878418,363.536652 252.765488,370.499512 
	C251.422485,371.271515 248.863632,371.276398 247.521118,370.503632 
	C215.527878,352.087158 183.614822,333.531219 151.737946,314.913666 
	C150.479507,314.178680 148.879822,312.600525 148.860016,311.391968 
	C148.650742,298.625977 148.730408,285.855255 148.730408,272.297272 
	C151.041672,273.436371 152.670074,274.118866 154.181595,275.001556 
	C184.049927,292.444550 213.968246,309.803925 243.694107,327.486755 
	C248.182007,330.156464 251.702591,330.788391 255.927612,327.029480 
z"/>
</svg>