<svg version="1.1" id="Layer_1" xmlns="http://www.w3.org/2000/svg" xmlns:xlink="http://www.w3.org/1999/xlink" x="0px" y="0px"
	 width="100%" viewBox="0 0 176 128" enable-background="new 0 0 176 128" xml:space="preserve">
<path fill="#ffff" opacity="1.000000" stroke="none" 
	d="
M109.170303,82.999725 
	C106.556694,92.013695 104.174088,100.676186 101.498840,109.247330 
	C99.684723,115.059502 90.853638,121.133743 84.748566,121.389496 
	C77.367004,121.698723 70.192307,120.143677 62.949787,119.206230 
	C60.285885,118.861412 59.073643,117.096428 58.642136,114.459717 
	C55.022236,92.340584 51.316753,70.235458 47.665977,48.121342 
	C46.287140,39.769211 45.047718,31.393644 43.614746,23.051090 
	C43.061489,19.830097 44.522453,18.103540 46.794865,15.924887 
	C55.680016,7.406321 66.202682,9.850465 76.556641,10.761465 
	C78.656746,10.946244 79.024239,12.631092 79.374207,14.339094 
	C80.406769,19.378374 81.508423,24.403494 82.581932,29.429005 
	C84.288345,29.706860 85.248375,28.504822 86.092323,27.684700 
	C91.608139,22.324556 97.842056,21.790487 104.916077,24.003283 
	C110.141449,25.637812 115.554375,26.731791 120.940720,27.771324 
	C124.351646,28.429617 125.889030,30.365236 125.823051,33.588959 
	C125.748337,37.240013 125.592003,40.916576 125.056541,44.520439 
	C124.753807,46.557999 124.776100,49.227108 122.591141,50.276302 
	C116.996475,52.962795 116.083633,58.290810 114.653130,63.385895 
	C112.854568,69.791916 111.068268,76.201363 109.170303,82.999725 
M116.184052,48.743256 
	C116.753075,48.158875 117.312767,47.078918 117.892578,47.068008 
	C122.814079,46.975437 122.838356,43.703159 122.687386,40.146732 
	C122.617043,38.489532 122.772202,36.816738 122.910110,35.158081 
	C123.139793,32.395634 122.073364,30.803699 119.221481,30.225882 
	C113.193359,29.004526 107.172958,27.716167 101.208466,26.219841 
	C97.281433,25.234657 96.445663,26.774866 96.214722,30.453354 
	C95.434006,42.888718 94.446053,55.318821 93.126442,67.707161 
	C92.796806,70.801735 93.075165,74.362366 90.670158,77.160614 
	C89.155640,75.808739 88.982742,74.146988 88.654579,72.531898 
	C85.017830,54.632771 81.377914,36.734272 77.707207,18.842093 
	C77.281357,16.766384 77.208458,13.865496 74.692642,13.601938 
	C69.170448,13.023431 63.602173,11.473935 58.113106,12.918972 
	C57.891758,13.545130 57.648468,13.873535 57.694241,14.154915 
	C62.597038,44.291660 67.528503,74.423737 72.434784,104.559914 
	C72.974510,107.875107 74.905388,109.382935 78.180672,109.652214 
	C82.812576,110.033028 87.508446,110.222809 92.031204,111.181747 
	C96.709549,112.173676 98.565239,110.538200 99.776794,106.115936 
	C104.962112,87.189194 110.457550,68.347420 116.184052,48.743256 
z"/>
</svg>